HIERARCHY
ROOT Hips
{
	OFFSET 0.000000 0.000000 0.000000
	CHANNELS 6 Xposition Yposition Zposition Xrotation Yrotation Zrotation
	JOINT LeftUpLeg_virtual
	{
		OFFSET 0.000000 0.000000 0.000000
		CHANNELS 3 Xrotation Yrotation Zrotation
		JOINT LeftUpLeg
		{
			OFFSET 15.427100 -6.655098 0.678600
			CHANNELS 3 Xrotation Yrotation Zrotation
			JOINT LeftLeg
			{
				OFFSET 4.081073 -39.591068 13.024000
				CHANNELS 3 Xrotation Yrotation Zrotation
				JOINT LeftFoot
				{
					OFFSET -4.081074 -37.707932 -15.979700
					CHANNELS 3 Xrotation Yrotation Zrotation
					JOINT LeftToeBase
					{
						OFFSET 5.346399 -15.068900 20.645000
						CHANNELS 3 Xrotation Yrotation Zrotation
						JOINT LeftToe_End
						{
							OFFSET 2.754700 0.931300 11.300900
							CHANNELS 3 Xrotation Yrotation Zrotation
							End Site
							{
								OFFSET 0 0 0
							}
						}
					}
				}
			}
		}
	}
	JOINT RightUpLeg_virtual
	{
		OFFSET 0.000000 0.000000 0.000000
		CHANNELS 3 Xrotation Yrotation Zrotation
		JOINT RightUpLeg
		{
			OFFSET -15.569500 -6.655098 0.678600
			CHANNELS 3 Xrotation Yrotation Zrotation
			JOINT RightLeg
			{
				OFFSET -4.081825 -39.591045 13.023800
				CHANNELS 3 Xrotation Yrotation Zrotation
				JOINT RightFoot
				{
					OFFSET 4.081824 -37.707954 -15.979600
					CHANNELS 3 Xrotation Yrotation Zrotation
					JOINT RightToeBase
					{
						OFFSET -5.346400 -15.068900 20.645000
						CHANNELS 3 Xrotation Yrotation Zrotation
						JOINT RightToe_End
						{
							OFFSET -2.754700 0.931300 11.300900
							CHANNELS 3 Xrotation Yrotation Zrotation
							End Site
							{
								OFFSET 0 0 0
							}
						}
					}
				}
			}
		}
	}
	JOINT Spine_virtual
	{
		OFFSET 0.000000 0.000000 0.000000
		CHANNELS 3 Xrotation Yrotation Zrotation
		JOINT Spine
		{
			OFFSET -0.279200 12.230698 -2.892100
			CHANNELS 3 Xrotation Yrotation Zrotation
			JOINT Spine1
			{
				OFFSET -0.232667 10.192268 -1.242267
				CHANNELS 3 Xrotation Yrotation Zrotation
				JOINT Spine1_split
				{
					OFFSET -0.232667 10.192268 -1.242267
					CHANNELS 3 Xrotation Yrotation Zrotation
					JOINT Spine2
					{
						OFFSET -0.232667 10.192268 -1.242267
						CHANNELS 3 Xrotation Yrotation Zrotation
						JOINT Neck_virtual
						{
							OFFSET 0.000000 0.000000 0.000000
							CHANNELS 3 Xrotation Yrotation Zrotation
							JOINT Neck
							{
								OFFSET -0.418800 17.814194 8.416900
								CHANNELS 3 Xrotation Yrotation Zrotation
								JOINT Head
								{
									OFFSET 0.000000 7.031097 3.806800
									CHANNELS 3 Xrotation Yrotation Zrotation
									JOINT HeadTop_End
									{
										OFFSET 0.000000 24.646606 12.978600
										CHANNELS 3 Xrotation Yrotation Zrotation
										End Site
										{
											OFFSET 0 0 0
										}
									}
								}
							}
						}
						JOINT LeftShoulder_virtual
						{
							OFFSET 0.000000 0.000000 0.000000
							CHANNELS 3 Xrotation Yrotation Zrotation
							JOINT LeftShoulder
							{
								OFFSET 8.476499 7.247704 -3.868750
								CHANNELS 3 Xrotation Yrotation Zrotation
								JOINT LeftShoulder_split
								{
									OFFSET 8.476499 7.247704 -3.868750
									CHANNELS 3 Xrotation Yrotation Zrotation
									JOINT LeftArm
									{
										OFFSET 9.308998 -2.777710 0.208600
										CHANNELS 3 Xrotation Yrotation Zrotation
										JOINT LeftForeArm
										{
											OFFSET 29.972298 0.000000 0.000000
											CHANNELS 3 Xrotation Yrotation Zrotation
											JOINT LeftHand
											{
												OFFSET 26.026505 0.000000 0.000000
												CHANNELS 3 Xrotation Yrotation Zrotation
												End Site
												{
													OFFSET 0 0 0
												}
											}
										}
									}
								}
							}
						}
						JOINT RightShoulder_virtual
						{
							OFFSET 0.000000 0.000000 0.000000
							CHANNELS 3 Xrotation Yrotation Zrotation
							JOINT RightShoulder
							{
								OFFSET -7.570500 7.247704 -3.868750
								CHANNELS 3 Xrotation Yrotation Zrotation
								JOINT RightShoulder_split
								{
									OFFSET -7.570500 7.247704 -3.868750
									CHANNELS 3 Xrotation Yrotation Zrotation
									JOINT RightArm
									{
										OFFSET -9.308998 -2.777710 0.208500
										CHANNELS 3 Xrotation Yrotation Zrotation
										JOINT RightForeArm
										{
											OFFSET -29.972300 0.000000 0.000000
											CHANNELS 3 Xrotation Yrotation Zrotation
											JOINT RightHand
											{
												OFFSET -26.026505 0.000000 0.000000
												CHANNELS 3 Xrotation Yrotation Zrotation
												End Site
												{
													OFFSET 0 0 0
												}
											}
										}
									}
								}
							}
						}
					}
				}
			}
		}
	}
}
MOTION
Frames: 4
Frame Time: 0.03333333
11.503472 8.398808 -16.753799 0.000000 0.000000 0.000000 -82.503139 63.652985 -6.212622 -85.787996 8.970074 4.737195 82.459870 3.344072 -4.361546 15.096291 -0.375974 10.714718 7.460935 -0.144021 -0.360310 0.000000 0.000000 0.000000 -88.978042 68.502624 0.082354 -28.203161 13.620265 7.007468 70.614587 1.096220 -1.326958 28.365072 -2.518030 15.361295 -3.724035 0.838379 2.056069 0.000000 0.000000 0.000000 -78.530537 65.109120 -11.553484 15.935636 -8.207258 -6.494975 11.375374 -4.120145 -4.927278 0.640546 0.063462 0.560581 0.000000 0.000000 0.000000 10.078107 -5.396639 -3.532301 -3.148162 6.471255 -17.102614 -28.197382 13.453452 -14.100779 0.000000 0.000000 0.000000 10.307763 -4.791818 -4.112994 3.471411 -7.859984 30.508747 -2.925614 -0.773321 -0.922168 -89.396405 26.568399 -56.891214 2.356801 -30.017947 1.038421 0.000000 0.000000 0.000000 11.357361 -4.889009 -3.863987 5.106822 11.616707 -17.599284 14.899154 3.588390 0.104139 -47.685457 33.505954 105.293773 175.733992 72.962403 -175.462082 0.000000 0.000000 0.000000 
11.578686 8.397293 -16.875000 0.000000 0.000000 0.000000 -81.934389 63.570743 -6.520337 -85.941367 9.206061 4.839283 82.192072 3.117735 -4.472081 14.913356 -0.801781 10.688497 7.502543 -0.169161 -0.204444 0.000000 0.000000 0.000000 -88.412933 68.227320 -0.631799 -28.322879 13.379740 7.072513 70.847961 1.072271 -1.393207 28.410204 -2.452646 15.294716 -3.709951 0.870147 2.027065 0.000000 0.000000 0.000000 -78.172820 65.055298 -11.616584 15.854583 -8.180533 -6.445977 11.382209 -4.198056 -4.870814 0.791686 0.401581 0.434759 0.000000 0.000000 0.000000 9.931216 -5.498995 -3.498764 -3.062488 6.404564 -17.123819 -28.051505 13.172151 -14.140923 0.000000 0.000000 0.000000 10.314797 -4.877218 -4.017933 3.346982 -7.668849 30.222665 -2.512449 -1.006594 -0.414285 -89.366407 26.298317 -57.117027 2.285132 -30.253599 0.873378 0.000000 0.000000 0.000000 11.309869 -4.993512 -3.819393 5.086603 11.699829 -17.376041 15.276213 3.525157 0.160890 -47.729604 33.521933 105.428689 175.873710 72.883378 -175.582225 0.000000 0.000000 0.000000 
11.650304 8.388248 -16.991493 0.000000 0.000000 0.000000 -81.600905 63.486752 -6.690778 -86.093168 9.645822 5.141767 81.889412 2.826351 -4.692881 14.392952 -1.218891 10.783533 7.594938 -0.208546 -0.127094 0.000000 0.000000 0.000000 -87.812587 67.921163 -1.370109 -28.388778 13.135344 7.174218 71.051179 1.152096 -1.480231 28.486948 -2.248358 15.530115 -3.981148 0.880071 1.979716 0.000000 0.000000 0.000000 -78.065149 65.133831 -11.393408 15.777442 -8.146663 -6.333502 11.357456 -4.293504 -4.765136 0.691922 0.764037 0.114749 0.000000 0.000000 0.000000 9.739707 -5.621783 -3.428381 -2.695783 6.243103 -17.287663 -27.855550 12.690143 -14.144475 0.000000 0.000000 0.000000 10.283567 -4.976235 -3.867452 3.149620 -7.411066 29.918373 -2.020691 -1.177894 0.250609 -89.126968 25.888673 -57.694062 2.370550 -29.904112 0.779103 0.000000 0.000000 0.000000 11.225713 -5.097737 -3.681728 5.006903 11.726888 -17.101615 15.460053 3.527137 0.146343 -47.640030 33.833906 105.425302 175.902670 73.240576 -175.698803 0.000000 0.000000 0.000000 
11.663800 8.392010 -17.049858 0.000000 0.000000 0.000000 -81.566536 63.451979 -6.628997 -86.172153 10.191680 5.559289 81.657473 2.510565 -4.960835 13.560518 -1.587041 11.042853 7.718435 -0.260728 -0.131420 0.000000 0.000000 0.000000 -87.318498 67.637936 -1.948270 -28.316977 12.888371 7.297494 71.067162 1.230130 -1.616873 28.393472 -2.092128 15.924922 -4.375659 0.870476 1.941964 0.000000 0.000000 0.000000 -78.211301 65.358012 -10.905502 15.707955 -8.081169 -6.207129 11.290252 -4.368881 -4.644147 0.534853 1.085626 -0.135437 0.000000 0.000000 0.000000 9.536776 -5.722476 -3.347359 -2.119111 5.964980 -17.575487 -27.635804 12.076050 -14.132291 0.000000 0.000000 0.000000 10.193937 -5.054861 -3.701583 2.935010 -7.153861 29.629723 -1.708273 -1.102985 0.738448 -88.844526 25.321842 -58.362115 2.567005 -29.168203 0.744304 0.000000 0.000000 0.000000 11.098111 -5.167123 -3.512783 4.916397 11.643521 -16.875097 15.369850 3.666761 0.130783 -47.509966 34.406053 105.319762 175.927669 73.760012 -175.897766 0.000000 0.000000 0.000000 
